/* XPM */
static char * nem_mad_calc_icon_xpm[] = {
"32 32 9 1",
" 	c None",
".	c #000000",
"+	c #F40F0F",
"@	c #41D79C",
"#	c #EB2733",
"$	c #FFFFFF",
"%	c #F1F40F",
"&	c #297D3A",
"*	c #F2F2F2",
"                                ",
"   ..........................   ",
"   .++.......................   ",
"   .++.......................   ",
"   ..........................   ",
"   .@@@@@@@@@@@@@@@@@@@@@@@@.   ",
"   .@@@..@@@....@@@@@@@@@@@@.   ",
"   .@@...@@@.@@.@@@@@@@@@@@@.   ",
"   .@..@.@@@.@@.@@....@####@.   ",
"   .@.@@.@@@.@@.@@++++@$$$$@.   ",
"   .@@@@.@@@.@@.@@%%%%@&&&&@.   ",
"   .@@@@.@@@.@@.@@@@@@@@@@@@.   ",
"   .@@@@.@.@....@@@@@@@@@@@@.   ",
"   .@@@@@@@@@@@@@@@@@@@@@@@@.   ",
"   .************************.   ",
"   .@@@@@@@*@@@@@@@@*@@@@@@@.   ",
"   .@@@.@@@*@@@@@@@@*@@@.@@@.   ",
"   .@@@.@@@*@@@@@@@@*@@.@.@@.   ",
"   .@.....@*@@....@@*@.@@@.@.   ",
"   .@@@.@@@*@@@@@@@@*@@@@@@@.   ",
"   .@@@.@@@*@@@@@@@@*@@@@@@@.   ",
"   .@@@@@@@*@@@@@@@@*@@@@@@@.   ",
"   .************************.   ",
"   .@@@@@@@*@@@@@@@@*@@@@@@@.   ",
"   .@@@.@@@*@.@@@.@@*@@@@@@@.   ",
"   .@@@@@@@*@@.@.@@@*@.....@.   ",
"   .@.....@*@@@.@@@@*@@@@@@@.   ",
"   .@@@@@@@*@@.@.@@@*@.....@.   ",
"   .@@@.@@@*@.@@@.@@*@@@@@@@.   ",
"   .@@@@@@@*@@@@@@@@*@@@@@@@.   ",
"   ..........................   ",
"                                "};
